<svg width="321" height="321" viewBox="0 0 321 321" fill="none" xmlns="http://www.w3.org/2000/svg">
<path d="M27.2983 142.3C28.7983 142.3 54.7983 138.8 69.2983 144.8C83.7983 150.8 71.7983 161.8 89.2983 161.3C103.298 160.9 116.465 166.133 121.298 168.8C124.298 179.8 135.498 202.8 156.298 206.8C177.098 210.8 180.298 227.467 179.298 235.3C178.632 242.8 182.298 257.7 202.298 257.3C222.298 256.9 226.965 269.8 226.798 276.3C199.132 296.8 130.298 326.9 76.2982 283.3C8.79825 228.8 27.2983 179.3 21.7983 172.8C17.3983 167.6 23.6316 150.3 27.2983 142.3Z" fill="#FF9D9D"/>
<path d="M121.541 168.285C63.5405 200.785 30.8739 185.285 25.5405 169.285C23.3739 200.285 34.0405 268.085 94.0405 291.285C154.041 314.485 189.041 300.952 199.041 291.285C129.841 266.485 136.041 216.785 151.541 198.785L270.041 59.2853C244.874 79.952 184.569 132.967 121.541 168.285Z" fill="#FF5959"/>
<path d="M249.537 27.3795C216.696 5.21654 176.8 -3.97529 137.572 1.58301C98.3445 7.1413 62.5732 27.0545 37.1819 57.4684C11.7905 87.8824 -1.41526 126.635 0.120335 166.225C1.65594 205.815 17.8237 243.427 45.4946 271.783C73.1655 300.139 110.372 317.222 149.912 319.725C189.453 322.228 228.516 309.973 259.542 285.333C290.568 260.693 311.35 225.419 317.865 186.339C324.381 147.258 316.167 107.15 294.814 73.7774L272.549 88.0236C290.375 115.884 297.232 149.367 291.792 181.992C286.353 214.617 269.004 244.064 243.103 264.634C217.202 285.204 184.592 295.434 151.582 293.345C118.573 291.255 87.5127 276.994 64.4126 253.322C41.3125 229.65 27.8153 198.251 26.5334 165.2C25.2514 132.15 36.2758 99.7987 57.473 74.4086C78.6701 49.0185 108.533 32.3946 141.281 27.7545C174.029 23.1143 207.334 30.7878 234.75 49.2898L249.537 27.3795Z" fill="#212121"/>
<path d="M273.785 41.7854L285.285 53.2854L301.785 25.7854L273.785 41.7854Z" fill="#FF5959"/>
</svg>
